<svg width="946" height="356" viewBox="0 0 946 356" fill="none" xmlns="http://www.w3.org/2000/svg">
<path d="M313.63 188.5C313.63 200.23 320.6 208.22 330.8 208.22C338.79 208.22 345.08 203.63 345.93 197H372.96C372.96 217.23 354.43 232.7 330.29 232.7C303.94 232.7 284.9 214.17 284.9 188.5C284.9 162.83 303.94 144.3 330.29 144.3C354.6 144.3 372.96 159.77 372.96 180H345.93C345.08 173.37 338.79 168.78 330.8 168.78C320.6 168.78 313.63 176.6 313.63 188.5Z" fill="white"/>
<path d="M410.295 231H383.265V108.6H410.295V231Z" fill="white"/>
<path d="M420.535 188.5C420.535 162.83 439.745 144.3 466.435 144.3C493.125 144.3 512.335 162.83 512.335 188.5C512.335 214.17 493.125 232.7 466.435 232.7C439.745 232.7 420.535 214.17 420.535 188.5ZM449.265 188.5C449.265 200.23 456.235 208.22 466.435 208.22C476.805 208.22 483.605 200.23 483.605 188.5C483.605 176.6 476.805 168.78 466.435 168.78C456.235 168.78 449.265 176.6 449.265 188.5Z" fill="white"/>
<path d="M593.778 203.97C593.778 221.48 580.008 232.7 557.908 232.7C535.128 232.7 519.998 220.8 519.998 202.95H543.968C544.138 207.88 548.898 210.77 557.058 210.77C564.198 210.77 567.938 208.56 567.938 205.16C567.938 202.44 565.218 200.91 556.208 199.38L550.598 198.36C529.008 194.45 520.848 187.48 520.848 172.86C520.848 155.52 533.938 144.3 554.848 144.3C576.438 144.3 591.058 156.2 591.058 174.05H567.258C567.088 168.95 563.008 166.23 555.868 166.23C550.258 166.23 546.688 168.1 546.688 171.67C546.688 174.73 549.918 176.26 559.268 177.96L564.878 178.98C585.788 182.72 593.778 189.69 593.778 203.97Z" fill="white"/>
<path d="M660.312 195.47V146H687.342V231H660.312V223.01C654.532 229.13 646.372 232.7 636.852 232.7C618.492 232.7 604.892 219.44 604.892 201.25V146H632.092V195.47C632.092 204.48 637.362 210.09 646.202 210.09C655.042 210.09 660.312 204.48 660.312 195.47Z" fill="white"/>
<path d="M728.381 193.94V231H701.351V146H728.381V158.41C733.481 149.74 742.151 144.3 752.521 144.3H756.771V169.63H752.521C737.561 169.63 728.381 178.81 728.381 193.94Z" fill="white"/>
<path d="M761.863 188.5C761.863 162.32 780.053 144.3 806.403 144.3C833.433 144.3 850.943 161.47 850.943 188.16V196.15H789.573C792.123 204.65 799.263 209.92 808.783 209.92C816.603 209.92 823.063 206.52 824.423 201.59H849.753C847.713 220.12 830.883 232.7 808.273 232.7C780.733 232.7 761.863 214.68 761.863 188.5ZM789.913 179.15H823.743C821.193 171.67 815.073 167.08 806.913 167.08C798.753 167.08 792.633 171.67 789.913 179.15Z" fill="white"/>
<path d="M233.1 148.79H98.77C97.1684 148.79 95.87 150.088 95.87 151.69V156.05C95.87 157.652 97.1684 158.95 98.77 158.95H233.1C234.702 158.95 236 157.652 236 156.05V151.69C236 150.088 234.702 148.79 233.1 148.79Z" fill="white"/>
<path d="M210.29 119.5H121.57C119.968 119.5 118.67 120.798 118.67 122.4V123.71C118.67 125.312 119.968 126.61 121.57 126.61H210.29C211.892 126.61 213.19 125.312 213.19 123.71V122.4C213.19 120.798 211.892 119.5 210.29 119.5Z" fill="white"/>
<path d="M98.75 179.95H97.43C95.8284 179.95 94.53 181.248 94.53 182.85V184.16C94.53 185.762 95.8284 187.06 97.43 187.06H98.75C100.352 187.06 101.65 185.762 101.65 184.16V182.85C101.65 181.248 100.352 179.95 98.75 179.95Z" fill="white"/>
<path d="M234.44 179.95H233.12C231.518 179.95 230.22 181.248 230.22 182.85V184.16C230.22 185.762 231.518 187.06 233.12 187.06H234.44C236.042 187.06 237.34 185.762 237.34 184.16V182.85C237.34 181.248 236.042 179.95 234.44 179.95Z" fill="white"/>
<path d="M188.16 108.67H143.7C142.579 108.67 141.67 109.579 141.67 110.7C141.67 111.821 142.579 112.73 143.7 112.73H188.16C189.281 112.73 190.19 111.821 190.19 110.7C190.19 109.579 189.281 108.67 188.16 108.67Z" fill="white"/>
<path d="M109.89 165.72H97.95C96.3484 165.72 95.05 167.018 95.05 168.62V169.93C95.05 171.532 96.3484 172.83 97.95 172.83H109.89C111.492 172.83 112.79 171.532 112.79 169.93V168.62C112.79 167.018 111.492 165.72 109.89 165.72Z" fill="white"/>
<path d="M224.81 133.38H107.05C105.448 133.38 104.15 134.678 104.15 136.28V139.12C104.15 140.722 105.448 142.02 107.05 142.02H224.81C226.412 142.02 227.71 140.722 227.71 139.12V136.28C227.71 134.678 226.412 133.38 224.81 133.38Z" fill="white"/>
<path d="M215.33 175.18C202.54 184.39 185.35 190.48 165.78 190.48C146.21 190.48 129.33 184.46 116.58 175.34C116.52 175.3 110.57 179.51 105.66 185.3C99.23 192.87 96.9 200.33 96.98 200.58C104.04 223.21 132.12 240.19 165.78 240.19C199.44 240.19 228.19 222.86 234.89 199.89C234.94 199.72 232.46 192.73 227.82 186.91C222.7 180.48 215.35 175.18 215.33 175.19V175.18Z" fill="white"/>
<path d="M233.78 165.72H221.84C220.238 165.72 218.94 167.018 218.94 168.62V169.93C218.94 171.532 220.238 172.83 221.84 172.83H233.78C235.382 172.83 236.68 171.532 236.68 169.93V168.62C236.68 167.018 235.382 165.72 233.78 165.72Z" fill="white"/>
</svg>
